<?xml version="1.0" encoding="utf-8"?>
<!-- Generator: Adobe Illustrator 25.0.0, SVG Export Plug-In . SVG Version: 6.00 Build 0)  -->
<svg version="1.1" id="Layer_1" xmlns="http://www.w3.org/2000/svg" xmlns:xlink="http://www.w3.org/1999/xlink" x="0px" y="0px"
	 viewBox="0 0 512 512" style="enable-background:new 0 0 512 512;" xml:space="preserve">
<style type="text/css">
	.st0{fill:#322F42;}
</style>
<path class="st0" d="M8,256c0,137,111,248,248,248c63.9,0,122.2-24.2,166.2-63.9c5.1-4.6,5.4-12.6,0.5-17.4L383,383
	c-4.5-4.5-11.6-4.7-16.4-0.6C336,409.3,297.1,424,256,424c-93.8,0-167.2-76-168-166.6C87.2,162,165.1,87.2,257.5,88
	c42.4,0.4,82.4,16.4,113.2,45.3L329,175c-15.1,15.1-4.4,41,17,41H480c13.3,0,24-10.7,24-24V57.9c0-21.4-25.9-32.1-41-17l-35.7,35.7
	C382.9,34.2,322.7,8.1,256.5,8C119.6,7.8,8,119.2,8,256z"/>
</svg>
